<?xml version="1.0" standalone="no"?>
<!DOCTYPE svg PUBLIC "-//W3C//DTD SVG 20010904//EN"
 "http://www.w3.org/TR/2001/REC-SVG-20010904/DTD/svg10.dtd">
<svg version="1.0" xmlns="http://www.w3.org/2000/svg"
 width="174.000000pt" height="26.000000pt" viewBox="0 0 174.000000 26.000000"
 preserveAspectRatio="xMidYMid meet">

<g transform="translate(0.000000,26.000000) scale(0.100000,-0.100000)"
fill="#000000" stroke="none">
<path d="M175 230 c3 -5 8 -10 11 -10 2 0 4 5 4 10 0 6 -5 10 -11 10 -5 0 -7
-4 -4 -10z"/>
<path d="M356 208 c-3 -7 -4 -53 -3 -103 2 -83 4 -90 22 -90 17 0 20 8 23 47
2 27 6 48 10 48 5 0 25 -22 46 -50 27 -35 45 -50 62 -50 13 0 24 3 24 7 0 4
-18 28 -40 54 -22 26 -40 52 -40 56 0 5 16 24 35 43 39 38 43 50 17 50 -10 0
-38 -20 -62 -46 l-45 -45 -5 43 c-4 30 -10 44 -23 46 -9 2 -19 -2 -21 -10z"/>
<path d="M653 208 c-18 -28 -80 -188 -75 -193 12 -12 38 -4 50 15 17 28 87 28
104 0 14 -22 48 -27 48 -7 0 17 -60 169 -72 185 -6 6 -19 12 -29 12 -10 0 -21
-6 -26 -12z m46 -79 c6 -18 11 -34 11 -35 0 -2 -13 -4 -30 -4 -16 0 -30 2 -30
4 0 14 24 66 30 66 4 0 13 -14 19 -31z"/>
<path d="M815 207 c-3 -7 -5 -54 -3 -103 3 -81 5 -89 23 -89 19 0 20 7 20 100
0 87 -2 100 -18 103 -9 2 -19 -3 -22 -11z"/>
<path d="M940 115 l0 -95 85 0 c68 0 85 3 85 15 0 11 -16 15 -67 17 -60 3 -68
5 -68 23 0 18 8 20 63 23 45 2 62 7 62 17 0 10 -17 15 -62 17 -55 3 -63 5 -63
23 0 18 8 20 68 23 51 2 67 6 67 17 0 12 -17 15 -85 15 l-85 0 0 -95z"/>
<path d="M1210 115 c0 -78 3 -95 15 -95 12 0 15 14 15 70 0 39 4 70 9 70 5 0
17 -31 26 -70 13 -55 21 -70 35 -70 20 0 21 3 40 88 7 28 16 52 21 52 5 0 9
-31 9 -70 0 -56 3 -70 15 -70 12 0 15 17 15 95 l0 95 -29 0 c-27 0 -29 -4 -41
-60 -20 -94 -37 -92 -59 6 -12 50 -14 54 -42 54 l-29 0 0 -95z"/>
<path d="M1528 199 c-21 -12 -24 -71 -5 -87 7 -6 40 -12 72 -14 52 -3 60 -6
60 -23 0 -17 -8 -20 -52 -23 -32 -2 -53 1 -53 7 0 6 -9 11 -20 11 -24 0 -28
-35 -4 -44 28 -11 150 -6 162 6 7 7 12 26 12 43 0 45 -16 55 -87 55 -61 0 -63
1 -63 25 0 23 3 25 50 25 28 0 50 -4 50 -10 0 -5 9 -10 20 -10 22 0 26 20 8
38 -15 15 -126 15 -150 1z"/>
</g>
</svg>
